HIERARCHY
ROOT Hips
{
	OFFSET 0.000000 71.427986 0.000000
	CHANNELS 6 Xposition Yposition Zposition Xrotation Yrotation Zrotation
	JOINT Pelvis
	{
		OFFSET 0.000000 0.000000 0.000000
		CHANNELS 3 Xrotation Yrotation Zrotation
		JOINT LeftUpLeg
		{
			OFFSET 6.797100 -2.508499 -1.318700
			CHANNELS 3 Xrotation Yrotation Zrotation
			JOINT LeftLeg
			{
				OFFSET 0.069008 -29.241863 0.690200
				CHANNELS 3 Xrotation Yrotation Zrotation
				JOINT LeftFoot
				{
					OFFSET -0.069008 -29.568123 -0.266800
					CHANNELS 3 Xrotation Yrotation Zrotation
					JOINT LeftToeBase
					{
						OFFSET 3.145500 -8.631000 16.059900
						CHANNELS 3 Xrotation Yrotation Zrotation
						End Site
						{
							OFFSET 0.000000 18.501587 0.000000
						}
					}
				}
			}
			JOINT Left_ShortSleeve
			{
				OFFSET 0.265923 -10.480953 1.153800
				CHANNELS 3 Xrotation Yrotation Zrotation
				End Site
				{
					OFFSET 1.725763 19.823879 0.000000
				}
			}
		}
		JOINT RightUpLeg
		{
			OFFSET -6.797100 -2.508499 -1.318700
			CHANNELS 3 Xrotation Yrotation Zrotation
			JOINT RightLeg
			{
				OFFSET -0.082453 -29.241932 0.688000
				CHANNELS 3 Xrotation Yrotation Zrotation
				JOINT RightFoot
				{
					OFFSET 0.082453 -29.568058 -0.264600
					CHANNELS 3 Xrotation Yrotation Zrotation
					JOINT RightToeBase
					{
						OFFSET -3.115300 -8.682800 16.113400
						CHANNELS 3 Xrotation Yrotation Zrotation
						End Site
						{
							OFFSET 0.000000 18.567114 0.000000
						}
					}
				}
			}
			JOINT Right_ShortSleeve
			{
				OFFSET -0.265923 -10.480953 1.153800
				CHANNELS 3 Xrotation Yrotation Zrotation
				End Site
				{
					OFFSET -1.725766 19.823910 0.000000
				}
			}
		}
	}
	JOINT Spine
	{
		OFFSET 0.000000 13.368103 0.470500
		CHANNELS 3 Xrotation Yrotation Zrotation
		JOINT Spine1
		{
			OFFSET 0.147000 13.837402 0.538800
			CHANNELS 3 Xrotation Yrotation Zrotation
			JOINT Spine2
			{
				OFFSET 0.168000 16.242897 -1.435500
				CHANNELS 3 Xrotation Yrotation Zrotation
				JOINT Neck
				{
					OFFSET 0.217200 18.631500 -1.679100
					CHANNELS 3 Xrotation Yrotation Zrotation
					JOINT Head
					{
						OFFSET 0.000000 6.599396 1.385900
						CHANNELS 3 Xrotation Yrotation Zrotation
						JOINT Hat
						{
							OFFSET -0.532200 27.220596 -10.096100
							CHANNELS 3 Xrotation Yrotation Zrotation
							End Site
							{
								OFFSET 0.000000 22.029861 0.000000
							}
						}
						JOINT HairD
						{
							OFFSET -10.777400 17.437393 -1.325900
							CHANNELS 3 Xrotation Yrotation Zrotation
							JOINT HairD1
							{
								OFFSET -3.290299 -11.051193 1.062200
								CHANNELS 3 Xrotation Yrotation Zrotation
								End Site
								{
									OFFSET 0.000000 11.579437 0.000000
								}
							}
						}
						JOINT HairB
						{
							OFFSET -10.777400 17.437393 1.467900
							CHANNELS 3 Xrotation Yrotation Zrotation
							JOINT HairB1
							{
								OFFSET -1.561200 -12.956299 3.590200
								CHANNELS 3 Xrotation Yrotation Zrotation
								End Site
								{
									OFFSET 0.000000 13.534866 0.000000
								}
							}
						}
						JOINT HairA
						{
							OFFSET 9.713100 17.437393 1.467900
							CHANNELS 3 Xrotation Yrotation Zrotation
							JOINT HairA1
							{
								OFFSET 1.561200 -12.956299 3.590200
								CHANNELS 3 Xrotation Yrotation Zrotation
								End Site
								{
									OFFSET 0.000000 13.534866 0.000000
								}
							}
						}
						JOINT HairC
						{
							OFFSET 9.713100 17.437393 -1.325900
							CHANNELS 3 Xrotation Yrotation Zrotation
							JOINT HairC1
							{
								OFFSET 3.290300 -11.051193 1.062200
								CHANNELS 3 Xrotation Yrotation Zrotation
								End Site
								{
									OFFSET 0.000000 11.579437 0.000000
								}
							}
						}
					}
				}
				JOINT LeftShoulder
				{
					OFFSET 5.101800 15.108002 -2.763700
					CHANNELS 3 Xrotation Yrotation Zrotation
					JOINT LeftArm
					{
						OFFSET 9.825497 2.506317 -1.597400
						CHANNELS 3 Xrotation Yrotation Zrotation
						JOINT LeftForeArm
						{
							OFFSET 21.966244 0.000000 0.000000
							CHANNELS 3 Xrotation Yrotation Zrotation
							JOINT LeftHand
							{
								OFFSET 33.879036 0.000000 0.000000
								CHANNELS 3 Xrotation Yrotation Zrotation
								JOINT LeftHandThumb1
								{
									OFFSET 6.715286 -2.359680 3.363841
									CHANNELS 3 Xrotation Yrotation Zrotation
									JOINT LeftHandThumb2
									{
										OFFSET 2.507072 -1.447464 1.447461
										CHANNELS 3 Xrotation Yrotation Zrotation
										JOINT LeftHandThumb3
										{
											OFFSET 2.898338 -1.673355 1.673357
											CHANNELS 3 Xrotation Yrotation Zrotation
											End Site
											{
												OFFSET -0.295959 3.727692 -0.131651
											}
										}
									}
								}
								JOINT LeftHandIndex1
								{
									OFFSET 14.190811 -0.254547 3.840278
									CHANNELS 3 Xrotation Yrotation Zrotation
									JOINT LeftHandIndex2
									{
										OFFSET 3.551727 0.000000 -0.000000
										CHANNELS 3 Xrotation Yrotation Zrotation
										JOINT LeftHandIndex3
										{
											OFFSET 2.894196 0.000000 0.000000
											CHANNELS 3 Xrotation Yrotation Zrotation
											End Site
											{
												OFFSET -1.000603 2.690872 0.366626
											}
										}
									}
								}
								JOINT LeftHandMiddle1
								{
									OFFSET 13.776489 0.000000 0.000000
									CHANNELS 3 Xrotation Yrotation Zrotation
									JOINT LeftHandMiddle2
									{
										OFFSET 3.438232 0.000000 0.000000
										CHANNELS 3 Xrotation Yrotation Zrotation
										JOINT LeftHandMiddle3
										{
											OFFSET 3.691551 0.000000 0.000000
											CHANNELS 3 Xrotation Yrotation Zrotation
											End Site
											{
												OFFSET -1.082298 3.499527 0.457670
											}
										}
									}
								}
								JOINT LeftHandRing1
								{
									OFFSET 13.966164 -0.268127 -3.067488
									CHANNELS 3 Xrotation Yrotation Zrotation
									JOINT LeftHandRing2
									{
										OFFSET 3.162567 0.000000 0.000000
										CHANNELS 3 Xrotation Yrotation Zrotation
										JOINT LeftHandRing3
										{
											OFFSET 3.324348 0.000000 0.000000
											CHANNELS 3 Xrotation Yrotation Zrotation
											End Site
											{
												OFFSET -0.861900 3.184998 0.405154
											}
										}
									}
								}
								JOINT LeftHandPinky1
								{
									OFFSET 13.131393 -0.168503 -5.746925
									CHANNELS 3 Xrotation Yrotation Zrotation
									JOINT LeftHandPinky2
									{
										OFFSET 2.849182 0.000000 0.000000
										CHANNELS 3 Xrotation Yrotation Zrotation
										JOINT LeftHandPinky3
										{
											OFFSET 2.805038 0.000000 0.000000
											CHANNELS 3 Xrotation Yrotation Zrotation
											End Site
											{
												OFFSET -0.882500 2.642609 0.325652
											}
										}
									}
								}
							}
							JOINT Left_Sleeve
							{
								OFFSET 6.592125 -0.646545 0.805568
								CHANNELS 3 Xrotation Yrotation Zrotation
								End Site
								{
									OFFSET -0.000179 20.275787 -0.000000
								}
							}
						}
					}
				}
				JOINT RightShoulder
				{
					OFFSET -5.731700 15.108002 -2.763700
					CHANNELS 3 Xrotation Yrotation Zrotation
					JOINT RightArm
					{
						OFFSET -9.825497 2.506317 -1.597400
						CHANNELS 3 Xrotation Yrotation Zrotation
						JOINT RightForeArm
						{
							OFFSET -21.966242 0.000000 0.000000
							CHANNELS 3 Xrotation Yrotation Zrotation
							JOINT RightHand
							{
								OFFSET -33.879032 0.000000 0.000000
								CHANNELS 3 Xrotation Yrotation Zrotation
								JOINT RightHandThumb1
								{
									OFFSET -6.715286 -2.359680 3.363841
									CHANNELS 3 Xrotation Yrotation Zrotation
									JOINT RightHandThumb2
									{
										OFFSET -2.507072 -1.447464 1.447461
										CHANNELS 3 Xrotation Yrotation Zrotation
										JOINT RightHandThumb3
										{
											OFFSET -2.898338 -1.673355 1.673357
											CHANNELS 3 Xrotation Yrotation Zrotation
											End Site
											{
												OFFSET 0.295959 3.727692 -0.131651
											}
										}
									}
								}
								JOINT RightHandIndex1
								{
									OFFSET -14.190811 -0.254547 3.840278
									CHANNELS 3 Xrotation Yrotation Zrotation
									JOINT RightHandIndex2
									{
										OFFSET -3.551727 0.000000 -0.000000
										CHANNELS 3 Xrotation Yrotation Zrotation
										JOINT RightHandIndex3
										{
											OFFSET -2.894196 0.000000 0.000000
											CHANNELS 3 Xrotation Yrotation Zrotation
											End Site
											{
												OFFSET 1.000603 2.690872 0.366626
											}
										}
									}
								}
								JOINT RightHandMiddle1
								{
									OFFSET -13.776489 0.000000 0.000000
									CHANNELS 3 Xrotation Yrotation Zrotation
									JOINT RightHandMiddle2
									{
										OFFSET -3.438232 0.000000 0.000000
										CHANNELS 3 Xrotation Yrotation Zrotation
										JOINT RightHandMiddle3
										{
											OFFSET -3.691551 0.000000 0.000000
											CHANNELS 3 Xrotation Yrotation Zrotation
											End Site
											{
												OFFSET 1.082298 3.499527 0.457670
											}
										}
									}
								}
								JOINT RightHandRing1
								{
									OFFSET -13.966164 -0.268127 -3.067488
									CHANNELS 3 Xrotation Yrotation Zrotation
									JOINT RightHandRing2
									{
										OFFSET -3.162567 0.000000 0.000000
										CHANNELS 3 Xrotation Yrotation Zrotation
										JOINT RightHandRing3
										{
											OFFSET -3.324348 0.000000 0.000000
											CHANNELS 3 Xrotation Yrotation Zrotation
											End Site
											{
												OFFSET 0.861900 3.184998 0.405154
											}
										}
									}
								}
								JOINT RightHandPinky1
								{
									OFFSET -13.131393 -0.168503 -5.746925
									CHANNELS 3 Xrotation Yrotation Zrotation
									JOINT RightHandPinky2
									{
										OFFSET -2.849182 0.000000 0.000000
										CHANNELS 3 Xrotation Yrotation Zrotation
										JOINT RightHandPinky3
										{
											OFFSET -2.805038 0.000000 0.000000
											CHANNELS 3 Xrotation Yrotation Zrotation
											End Site
											{
												OFFSET 0.882500 2.642609 0.325652
											}
										}
									}
								}
							}
							JOINT Right_Sleeve
							{
								OFFSET -6.592125 -0.646545 0.805568
								CHANNELS 3 Xrotation Yrotation Zrotation
								End Site
								{
									OFFSET 0.000179 20.275787 -0.000000
								}
							}
						}
					}
				}
				JOINT Bind_Right_JacketString
				{
					OFFSET -3.534800 11.969597 7.200700
					CHANNELS 3 Xrotation Yrotation Zrotation
					JOINT Bind_Right_JacketString1
					{
						OFFSET -0.319900 -6.102600 2.794100
						CHANNELS 3 Xrotation Yrotation Zrotation
						End Site
						{
							OFFSET 0.000000 6.719452 0.000000
						}
					}
				}
				JOINT Bind_Left_JacketString
				{
					OFFSET 2.904800 11.969597 7.200700
					CHANNELS 3 Xrotation Yrotation Zrotation
					JOINT Bind_Left_JacketString1
					{
						OFFSET 0.364800 -5.904503 3.186800
						CHANNELS 3 Xrotation Yrotation Zrotation
						End Site
						{
							OFFSET 0.000000 6.719513 0.000000
						}
					}
				}
				JOINT HairE
				{
					OFFSET 5.915200 17.612701 -11.592200
					CHANNELS 3 Xrotation Yrotation Zrotation
					JOINT HairE1
					{
						OFFSET 0.289200 -7.171898 -1.284500
						CHANNELS 3 Xrotation Yrotation Zrotation
						End Site
						{
							OFFSET 0.000000 7.291756 0.000000
						}
					}
				}
				JOINT HairF
				{
					OFFSET -0.864800 17.612701 -11.592200
					CHANNELS 3 Xrotation Yrotation Zrotation
					JOINT HairF1
					{
						OFFSET 0.000000 -14.087097 -2.127501
						CHANNELS 3 Xrotation Yrotation Zrotation
						End Site
						{
							OFFSET 0.000000 14.246841 0.000000
						}
					}
				}
				JOINT HairG
				{
					OFFSET -8.087700 17.612701 -11.592200
					CHANNELS 3 Xrotation Yrotation Zrotation
					JOINT HairG1
					{
						OFFSET -0.293600 -6.081398 -0.910100
						CHANNELS 3 Xrotation Yrotation Zrotation
						End Site
						{
							OFFSET 0.000000 6.156120 0.000000
						}
					}
				}
			}
		}
	}
	JOINT Pouch
	{
		OFFSET 0.000000 4.394501 10.847300
		CHANNELS 3 Xrotation Yrotation Zrotation
		End Site
		{
			OFFSET 0.000000 21.880577 0.000000
		}
	}
	JOINT Bag
	{
		OFFSET -13.229000 4.813004 -0.593300
		CHANNELS 3 Xrotation Yrotation Zrotation
		End Site
		{
			OFFSET 0.000000 21.880577 0.000000
		}
	}
	JOINT OccupyGuyFacialAnim_Joint
	{
		OFFSET 1.000000 -70.206398 -1.655000
		CHANNELS 3 Xrotation Yrotation Zrotation
		End Site
		{
			OFFSET 0.000000 21.880577 0.000000
		}
	}
}
MOTION
Frames: 4
Frame Time: 0.033333
-0.506091 60.469704 0.351308 16.051897 -54.826458 12.358878 -0.000000 0.000001 0.000000 -65.819562 26.153160 42.771727 46.265161 -14.931845 4.318110 0.664103 0.552071 -9.994301 0.000000 0.000000 -0.000000 0.000000 0.000000 0.000000 -33.703965 -20.428602 -35.288616 42.297818 -0.659086 -5.458390 -13.837307 -5.333435 30.444554 -0.000000 0.000000 -0.000000 -0.000000 -0.000001 -0.000000 7.406293 3.464121 -3.063067 1.209327 1.419297 2.320004 0.209404 1.297926 1.043735 -1.852103 9.789333 -1.570080 -3.710347 23.673099 -4.987627 0.000000 0.000000 -0.000000 0.000000 0.000000 -0.000000 0.000000 0.000000 -0.000000 0.000000 0.000000 -0.000000 0.000000 0.000000 -0.000000 0.000000 0.000000 -0.000000 0.000000 0.000000 -0.000000 0.000000 0.000000 -0.000000 0.000000 0.000000 -0.000000 -2.421957 -9.912775 -4.106167 -4.668997 -14.995286 -46.826944 -96.668125 -58.172824 -94.771757 0.027037 -0.377045 -3.261907 4.766477 -0.870672 -14.442452 15.732308 12.674822 8.828580 -0.000000 0.000001 -0.000000 -3.609591 -7.817607 -81.260509 0.002854 -4.390566 -67.459893 0.000002 0.000001 -0.000000 -5.482378 2.419676 -86.651591 -0.067787 -4.899649 -76.606883 0.000001 0.000002 0.000001 -4.485329 3.914112 -90.411617 -1.099979 -0.677110 -62.310819 0.000001 0.000001 -0.000003 -8.882743 8.262634 -85.751195 -0.044338 -0.067919 -74.105626 0.000000 -0.000002 0.000003 0.000000 0.000000 -0.000000 -7.387817 -19.317445 2.804099 3.089091 2.300724 51.805117 -16.213693 73.879411 16.738246 -2.716610 27.655236 10.524489 24.918332 -21.323379 30.343044 9.041925 8.262098 -18.001792 0.000002 0.000002 0.000004 -0.069251 -3.034187 61.424164 0.006456 4.395149 66.609186 0.000002 0.000001 0.000002 -1.215312 -0.119127 68.273861 -0.078713 4.899256 84.501769 0.000001 0.000000 -0.000001 0.884243 -4.611689 79.192833 -0.729410 1.145566 73.254571 -0.000003 0.000001 -0.000001 -3.962727 0.100721 86.768449 -0.027277 0.052909 54.416110 -0.000001 0.000002 0.000001 0.000001 0.000002 0.000000 -0.000000 0.000000 -0.000000 0.000001 0.000002 -0.000001 -0.000000 0.000000 -0.000000 -0.000000 0.000000 -0.000000 -0.000000 0.000000 -0.000000 0.000001 0.000002 -0.000000 -0.000000 0.000000 -0.000000 -0.000000 0.000000 -0.000000 -0.000000 0.000000 -0.000000 0.000001 0.000002 -0.000000 -0.000000 0.000001 0.000000 -0.000000 0.000001 0.000000 -0.000000 0.000001 0.000000 
-0.501622 59.905853 0.947837 17.250058 -57.365072 13.768901 -0.000001 -0.000000 0.000000 -66.340480 25.062611 43.918673 50.219632 -12.765396 4.757691 -2.087511 0.888243 -10.733455 0.000000 -0.000000 0.000000 -0.000003 0.000000 -0.000000 -35.474374 -18.903035 -36.332904 43.743072 1.839113 -5.326968 -14.203306 -5.370564 30.155541 -0.000000 0.000000 -0.000000 0.000001 -0.000001 -0.000002 7.386918 5.792201 -1.955345 1.501758 1.813520 2.156744 0.197558 1.042447 1.474226 -2.057622 10.280493 -0.477073 -3.281296 23.111875 -5.475209 -0.000000 -0.000001 0.000000 -0.000000 -0.000001 0.000000 -0.000000 -0.000001 0.000000 -0.000000 -0.000001 0.000000 -0.000001 0.000000 0.000000 -0.000000 -0.000001 0.000000 -0.000001 0.000000 0.000000 -0.000000 -0.000001 0.000000 -0.000000 -0.000001 0.000000 -2.432963 -8.795060 -5.032342 -4.328749 -15.971060 -47.904778 -94.626131 -57.966545 -90.601626 0.714685 -2.528528 -4.937375 4.766475 -0.870670 -14.442450 15.732308 12.674821 8.828580 -0.000001 0.000002 0.000001 -3.609592 -7.817608 -81.260509 0.002853 -4.390567 -67.459893 -0.000001 0.000001 -0.000002 -5.482380 2.419678 -86.651591 -0.067785 -4.899649 -76.606883 0.000001 -0.000001 0.000002 -4.485329 3.914115 -90.411617 -1.099979 -0.677111 -62.310819 0.000001 -0.000001 -0.000000 -8.882745 8.262639 -85.751195 -0.044336 -0.067919 -74.105633 -0.000001 0.000001 0.000003 -0.000000 0.000000 -0.000001 -6.778327 -18.221944 3.599404 2.146155 1.581528 49.503650 -16.689842 75.009493 17.170440 -2.658206 25.443155 10.770442 24.918330 -21.323374 30.343044 9.041929 8.262094 -18.001793 -0.000000 -0.000001 -0.000001 -0.069254 -3.034184 61.424164 0.006455 4.395148 66.609186 0.000002 -0.000001 -0.000002 -1.215316 -0.119126 68.273861 -0.078709 4.899256 84.501769 -0.000001 -0.000000 -0.000001 0.884237 -4.611684 79.192833 -0.729409 1.145565 73.254571 -0.000000 -0.000001 -0.000000 -3.962724 0.100712 86.768442 -0.027277 0.052912 54.416110 -0.000000 0.000000 0.000001 0.000004 0.000001 -0.000002 -0.000002 -0.000003 0.000000 -0.000000 0.000002 -0.000002 -0.000002 -0.000003 0.000001 -0.000002 -0.000003 0.000001 -0.000002 -0.000003 0.000000 -0.000000 0.000002 -0.000001 -0.000002 -0.000003 0.000001 -0.000002 -0.000003 0.000001 -0.000002 -0.000003 0.000000 -0.000000 0.000002 -0.000001 -0.000001 -0.000000 0.000000 -0.000001 -0.000000 0.000000 -0.000001 -0.000000 0.000000 
-0.441758 59.417328 1.473642 18.849155 -60.123280 15.497759 0.000001 0.000001 0.000001 -66.557550 24.174743 45.014181 53.460218 -10.450683 5.140205 -4.475878 1.248759 -11.715157 -0.000000 -0.000000 -0.000000 -0.000001 0.000001 -0.000000 -37.287389 -17.389032 -37.061556 44.836063 4.408356 -5.172355 -14.274945 -5.278463 29.678654 0.000000 -0.000000 0.000000 -0.000000 -0.000001 0.000000 7.729394 8.712101 -0.456068 1.846402 2.356314 2.070592 0.250179 0.933987 1.986005 -2.416265 10.990558 -0.015681 -2.537238 22.638601 -7.033355 0.000001 -0.000001 0.000000 0.000001 -0.000001 0.000000 0.000001 -0.000001 0.000001 0.000001 -0.000001 -0.000000 0.000001 -0.000001 0.000000 0.000001 -0.000001 -0.000000 0.000001 -0.000001 0.000000 0.000001 -0.000001 0.000000 0.000001 -0.000001 0.000000 -2.494647 -6.477367 -7.302136 -1.565756 -18.295988 -48.025475 -96.718347 -56.632517 -90.372671 1.280134 -2.435885 -3.759170 4.766479 -0.870673 -14.442449 15.732306 12.674821 8.828580 -0.000001 0.000003 -0.000001 -3.609592 -7.817608 -81.260509 0.002855 -4.390568 -67.459886 0.000001 0.000001 0.000004 -5.482379 2.419676 -86.651591 -0.067786 -4.899653 -76.606876 0.000001 0.000001 -0.000001 -4.485331 3.914114 -90.411617 -1.099979 -0.677110 -62.310819 -0.000001 0.000002 -0.000001 -8.882741 8.262634 -85.751195 -0.044339 -0.067920 -74.105626 -0.000001 0.000000 0.000005 0.000000 -0.000001 -0.000001 -6.370408 -16.694365 4.177695 2.100230 1.680936 45.458263 -21.676218 76.304736 22.254879 -2.640019 22.709937 11.082499 24.918330 -21.323374 30.343044 9.041925 8.262095 -18.001790 -0.000004 0.000003 0.000002 -0.069251 -3.034187 61.424164 0.006454 4.395151 66.609186 -0.000000 -0.000001 0.000000 -1.215312 -0.119128 68.273861 -0.078712 4.899253 84.501769 0.000004 -0.000001 0.000003 0.884243 -4.611688 79.192826 -0.729410 1.145564 73.254578 -0.000000 0.000000 -0.000001 -3.962726 0.100717 86.768449 -0.027278 0.052909 54.416110 0.000001 0.000001 -0.000001 0.000001 -0.000002 -0.000002 -0.000000 0.000001 0.000000 -0.000000 0.000001 -0.000000 -0.000000 0.000001 0.000000 -0.000000 0.000001 0.000000 -0.000000 0.000001 0.000000 -0.000000 0.000001 -0.000000 -0.000000 0.000001 0.000000 -0.000000 0.000001 0.000000 -0.000000 0.000001 0.000000 -0.000000 0.000001 -0.000000 0.000001 0.000001 0.000001 0.000001 0.000001 0.000001 0.000001 0.000001 0.000001 
-0.414087 59.159554 2.045076 20.269385 -62.607904 17.572012 -0.000000 0.000001 -0.000000 -65.894796 24.302484 45.415485 55.438620 -8.258031 5.405613 -6.355063 1.573679 -12.715935 -0.000000 0.000002 -0.000000 0.000004 -0.000002 -0.000001 -38.518415 -15.973893 -38.016529 44.929189 6.665624 -4.981214 -13.884792 -5.087733 29.334850 0.000000 -0.000000 0.000000 0.000001 0.000001 -0.000002 8.581283 10.936794 -0.267585 2.255202 2.766032 1.918878 0.373098 0.698033 2.430083 -3.073217 11.971285 1.030485 -2.028570 23.586904 -10.407181 0.000000 -0.000001 0.000000 0.000000 -0.000001 0.000000 0.000000 -0.000001 0.000001 0.000000 -0.000001 -0.000000 -0.000000 0.000001 -0.000000 0.000000 -0.000001 -0.000000 -0.000000 0.000001 -0.000000 0.000000 -0.000001 0.000000 0.000000 -0.000001 0.000000 -2.329140 -3.351655 -8.743634 3.566051 -19.240969 -48.094132 -106.510229 -53.938550 -98.653777 1.855498 3.389223 -7.222877 4.766477 -0.870673 -14.442450 15.732309 12.674820 8.828579 -0.000001 0.000001 -0.000001 -3.609594 -7.817608 -81.260509 0.002854 -4.390566 -67.459886 0.000002 -0.000000 -0.000002 -5.482381 2.419677 -86.651584 -0.067784 -4.899652 -76.606889 -0.000001 -0.000002 0.000002 -4.485328 3.914115 -90.411617 -1.099979 -0.677112 -62.310812 -0.000002 0.000001 0.000000 -8.882745 8.262637 -85.751195 -0.044339 -0.067917 -74.105633 -0.000003 -0.000001 0.000001 -0.000000 -0.000001 -0.000000 -6.379702 -14.205042 4.029227 3.305377 4.750966 40.375407 -31.857064 74.003351 32.862632 -2.127306 20.963505 9.912309 24.918335 -21.323378 30.343040 9.041925 8.262096 -18.001790 -0.000003 -0.000001 0.000003 -0.069248 -3.034186 61.424164 0.006455 4.395152 66.609186 0.000002 0.000000 -0.000003 -1.215311 -0.119129 68.273867 -0.078713 4.899254 84.501769 0.000001 -0.000000 -0.000001 0.884243 -4.611687 79.192826 -0.729411 1.145564 73.254571 -0.000003 0.000000 -0.000002 -3.962712 0.100701 86.768442 -0.027278 0.052908 54.416114 -0.000004 0.000002 -0.000001 0.000002 -0.000000 0.000003 0.000001 -0.000001 -0.000001 0.000003 0.000001 -0.000001 0.000001 -0.000001 -0.000000 0.000001 -0.000001 -0.000000 0.000001 -0.000001 -0.000001 0.000003 0.000001 -0.000000 0.000001 -0.000001 -0.000000 0.000001 -0.000001 -0.000000 0.000001 -0.000001 -0.000001 0.000003 0.000001 -0.000000 -0.000000 0.000001 -0.000000 -0.000000 0.000001 -0.000000 -0.000000 0.000001 -0.000000 
